<svg id="Capa_1" data-name="Capa 1" xmlns="http://www.w3.org/2000/svg" viewBox="0 0 141.04 71.11"><defs><style>.cls-1{fill:#fff;}.cls-1,.cls-2,.cls-3{fill-rule:evenodd;}.cls-2{fill:#ec1c24;}.cls-3{fill:#bab9b9;}</style></defs><path class="cls-1" d="M113,62.44a8.16,8.16,0,1,1,8.16-8.16A8.17,8.17,0,0,1,113,62.44Zm2.41-8.16A2.42,2.42,0,1,0,113,56.69a2.41,2.41,0,0,0,2.41-2.41ZM113,40.37a13.91,13.91,0,1,0,13.9,13.91A13.91,13.91,0,0,0,113,40.37Z"/><path class="cls-1" d="M28.63,62.44a8.16,8.16,0,1,1,8.16-8.16,8.17,8.17,0,0,1-8.16,8.16ZM31,54.28a2.42,2.42,0,1,0-2.41,2.41A2.41,2.41,0,0,0,31,54.28ZM28.63,40.37a13.91,13.91,0,1,0,13.9,13.91A13.91,13.91,0,0,0,28.63,40.37Z"/><path class="cls-1" d="M136.88,43.19l-.27-4.81a7.55,7.55,0,0,0-2.68-4.46,8.66,8.66,0,0,0-5.22-2.17c-4.21-.57-8.86-1.18-13-1.79-2.23-.32-4.42-.65-6.51-.88-1.23-.14-1.89-.23-3.15-.42-3.54-.51-3.76-.58-5.6.12A72.37,72.37,0,0,0,83.71,14.26c-3.21-2.79-5.65-2.19-10.41-2.19,0-3.4-2.24-5.49-4.39-5.49h-37c-2,0-4.38,2.42-4.38,4.39v1.1c-4.08,0-5.56.18-8.57,3.21a85.57,85.57,0,0,0-6,6.3L6.77,27.76c-2.3,2.29-2.26,1.65-2.26,4.16l3.85,2,.45,3.68L8.5,39.47l-4,1.32,0,4c0,9.49-1.13,7.65,4,8.69a36.13,36.13,0,0,1,4.73,1A15.38,15.38,0,0,1,35.58,41,15.63,15.63,0,0,1,44,54.82H97.42a16.89,16.89,0,0,1,1.44-6.23c5.39-12,22.82-12,27.81,0a19.18,19.18,0,0,1,1.44,6.23c5.25,0,4.12.51,6.65-2.12C137.49,49.87,136.88,48.23,136.88,43.19ZM33.28,8.78H67.54c2.31,0,3.39,1.14,3.56,3.29-1.94,0-40.51.38-41.13-.25C29.55,11.41,30,8.78,33.28,8.78Zm-6.16,9.78c.29-.48.42-.77.7-1.22s.23-.89,1-.89h9.37V29.61h-14l-1.65-3.29ZM44.46,51.49a.21.21,0,0,1-.13,0,.19.19,0,0,1-.13,0c0-.06-.05-.3-.07-.36a15.82,15.82,0,0,0-31,.1h0a1.84,1.84,0,0,1,0,.25.12.12,0,0,1-.05.05.25.25,0,0,1-.15,0,.18.18,0,0,1-.11-.1h0a16.14,16.14,0,0,1,31.77-.08A.16.16,0,0,1,44.46,51.49Zm4.23-16.24-6.34,0s-.84-1,1.48-1S48.94,34.37,48.69,35.25Zm13.64-5.64H40.41V16.45H62.33Zm11.31,5.64-6.34,0s-.84-1,1.48-1S73.88,34.37,73.64,35.25Zm-9.11-5.64V16.45H84.74A68,68,0,0,1,97.45,27.74c-1.84.66-4.24,1.87-5.79,1.87Zm64,21.88a.21.21,0,0,1-.13,0,.19.19,0,0,1-.13,0c0-.06,0-.3-.07-.36a15.82,15.82,0,0,0-31,.1h0c0,.09,0,.17,0,.25l0,.05a.26.26,0,0,1-.15,0,.23.23,0,0,1-.12-.1h0a16.14,16.14,0,0,1,31.77-.08A.16.16,0,0,1,128.55,51.49Z"/><path class="cls-2" d="M10,40.79s-.53-6.22-1.29-7.57-3.76-1.3-3.76-1.3a30.09,30.09,0,0,0-.44,8.87Z"/><path class="cls-3" d="M131,42.84s-1.8.09-1.89-1.58-.53-3.8,1.69-3.66,5.83.64,5.83.64.27,3.33.27,4.95Z"/></svg>