<svg id="Capa_1" data-name="Capa 1" xmlns="http://www.w3.org/2000/svg" viewBox="0 0 165.33 64.8"><defs><style>.cls-1{fill:#fff;}.cls-1,.cls-2,.cls-3{fill-rule:evenodd;}.cls-2{fill:#ec1c24;}.cls-3{fill:#959596;}</style></defs><path class="cls-1" d="M136.72,56.11a8.27,8.27,0,1,0-8.27-8.27,8.26,8.26,0,0,0,8.27,8.27Zm0-20.1a11.83,11.83,0,1,1-11.84,11.83A11.83,11.83,0,0,1,136.72,36Z"/><path class="cls-1" d="M133.51,47.84a3.21,3.21,0,1,0,3.21-3.21A3.21,3.21,0,0,0,133.51,47.84Z"/><path class="cls-1" d="M37.88,56.11a8.27,8.27,0,1,0-8.26-8.27,8.27,8.27,0,0,0,8.26,8.27Zm0-20.1A11.83,11.83,0,1,1,26.05,47.84,11.84,11.84,0,0,1,37.88,36Z"/><path class="cls-1" d="M34.67,47.84a3.21,3.21,0,1,0,3.21-3.21A3.21,3.21,0,0,0,34.67,47.84Z"/><path class="cls-2" d="M17.31,26.7c.41,1.64-5.21,4.42-5.21,4.42l-2.48.31s-.85-3.4,0-4.86c0,0,0-.31.65-.41a2.83,2.83,0,0,1,.07-1.53S16.9,25.07,17.31,26.7Z"/><path class="cls-3" d="M156.23,39l-2-.62-6.55-3.92s3.21-1.3,5.45-.55,3.32,1,3.91,1.66l1.23.37.31,2-1.33-.22S157.37,39.35,156.23,39Z"/><path class="cls-1" d="M158.5,35.16C146.07,24.61,114.2,24.5,114.2,24.5L93.85,12.66c-20.11-5.88-40.17-2.47-40.17-2.47-2.49-1.73-6-.81-6-.81.26.76-.75,2.09-.75,2.09-6,1-23.21,9.19-23.21,9.19L11.79,22.34H9.43l-.57,1.07.31,2.82a11.41,11.41,0,0,0,0,4.71c.51,3-3.22,6.14-3.22,6.14-1.42,3,1.92,10.39,1.92,10.39l16.58,3h.27a15,15,0,0,1-.1-1.79c0-8,6-14.43,13.39-14.43s13.38,6.46,13.38,14.43a15.41,15.41,0,0,1-.32,3.14l.61,0,71.48,1.29h.12c.06-1.53.21-3.17.21-4.86,0-7.66,5.9-13.87,13.18-13.87s13.18,6.21,13.18,13.87a14.3,14.3,0,0,1-.74,4.57h.58c7.85.16,8.82-.86,8.82-.86V50.82C160.8,47.81,158.5,35.16,158.5,35.16Zm-146.4-4-2.48.31s-.85-3.4,0-4.86c0,0,0-.31.65-.41a2.83,2.83,0,0,1,.07-1.53s6.56.44,7,2.07S12.1,31.12,12.1,31.12Zm28-12.84C42.18,16.68,50.2,14,50.2,14l1,9.78L41,23.46S38,19.88,40.11,18.28Zm12,26.12a.14.14,0,0,1-.1.08.15.15,0,0,1-.13,0l0,0a1.43,1.43,0,0,0,0-.22h0a14,14,0,0,0-27.53-.08l-.06.32a.21.21,0,0,1-.11,0,.17.17,0,0,1-.12,0,.14.14,0,0,1,0-.11,14.32,14.32,0,0,1,28.19.08ZM50.81,28.5l-.2-.11-3.88-.09-.26.19c-2.28.12-2.19-.6-2.19-.6-.24-.6.65-.84.65-.84,1.61-.58,7.48.65,7.48.65C53.52,28.58,50.81,28.5,50.81,28.5Zm1.67-4.73-1.24-10.1a90.16,90.16,0,0,1,18.94-1.6l1.87,12.48Zm32.13,6.74-.19-.11-3.89-.09-.26.19c-2.28.12-2.18-.6-2.18-.6-.24-.6.64-.84.64-.84,1.61-.58,7.49.65,7.49.65C87.32,30.59,84.61,30.51,84.61,30.51Zm-5.94-5.65L74.8,12.41c17.88-1,33.51,13.79,33.51,13.79ZM108.36,23a116.71,116.71,0,0,0-15.9-9.74L93.75,13l19.66,11.46A7.7,7.7,0,0,1,108.36,23ZM150.81,44.4a.15.15,0,0,1-.11.08.15.15,0,0,1-.13,0l0,0c0-.08,0-.15-.05-.22h0A14,14,0,0,0,123,44.12a3,3,0,0,0-.07.32.16.16,0,0,1-.22,0,.14.14,0,0,1,0-.11,14.32,14.32,0,0,1,28.18.08ZM156.23,39l-2-.62-6.55-3.92s3.21-1.3,5.45-.55,3.32,1,3.91,1.66l1.23.37.31,2-1.33-.22S157.37,39.35,156.23,39Z"/></svg>