<svg id="Capa_1" data-name="Capa 1" xmlns="http://www.w3.org/2000/svg" viewBox="0 0 206.04 104.33"><defs><style>.cls-1{fill:#000001;}.cls-1,.cls-2,.cls-3{fill-rule:evenodd;}.cls-2{fill:#ec1c24;}.cls-3{fill:#959596;}</style></defs><path class="cls-1" d="M167.2,82.75a8.27,8.27,0,1,0-8.27-8.27,8.26,8.26,0,0,0,8.27,8.27Zm0-20.1a11.84,11.84,0,1,1-11.84,11.83A11.83,11.83,0,0,1,167.2,62.65Z"/><path class="cls-1" d="M164,74.48a3.21,3.21,0,1,0,3.21-3.21A3.21,3.21,0,0,0,164,74.48Z"/><path class="cls-1" d="M68.36,82.75a8.27,8.27,0,1,0-8.26-8.27,8.27,8.27,0,0,0,8.26,8.27Zm0-20.1A11.84,11.84,0,1,1,56.53,74.48,11.84,11.84,0,0,1,68.36,62.65Z"/><path class="cls-1" d="M65.15,74.48a3.21,3.21,0,1,0,3.21-3.21A3.21,3.21,0,0,0,65.15,74.48Z"/><path class="cls-2" d="M47.79,53.34c.41,1.64-5.21,4.42-5.21,4.42l-2.48.31s-.85-3.4,0-4.86c0,0,0-.31.65-.41a2.83,2.83,0,0,1,.07-1.53S47.38,51.71,47.79,53.34Z"/><path class="cls-3" d="M186.71,65.65l-2-.62-6.55-3.92s3.21-1.3,5.45-.55,3.32,1,3.91,1.66l1.23.37.31,2-1.33-.22S187.85,66,186.71,65.65Z"/><path class="cls-1" d="M189,61.8c-12.43-10.55-44.3-10.66-44.3-10.66L124.33,39.31c-20.11-5.89-40.17-2.48-40.17-2.48-2.49-1.73-6-.81-6-.81.26.76-.75,2.09-.75,2.09-6,1-23.21,9.19-23.21,9.19L42.27,49H39.91l-.57,1.07.31,2.82a11.41,11.41,0,0,0,0,4.71c.51,3-3.22,6.14-3.22,6.14-1.42,3,1.92,10.39,1.92,10.39l16.58,3h.27a15,15,0,0,1-.1-1.79c0-8,6-14.43,13.39-14.43s13.38,6.46,13.38,14.43a15.41,15.41,0,0,1-.32,3.14l.61,0,71.48,1.29h.12c.06-1.53.21-3.17.21-4.86,0-7.66,5.9-13.87,13.18-13.87s13.18,6.21,13.18,13.87a14.26,14.26,0,0,1-.74,4.57h.58c7.85.16,8.82-.86,8.82-.86V77.46C191.28,74.45,189,61.8,189,61.8Zm-146.4-4-2.48.31s-.85-3.4,0-4.86c0,0,0-.31.65-.41a2.83,2.83,0,0,1,.07-1.53s6.56.44,7,2.07S42.58,57.76,42.58,57.76Zm28-12.84c2.07-1.6,10.09-4.29,10.09-4.29l1,9.78L71.47,50.1S68.52,46.52,70.59,44.92ZM82.61,71a.14.14,0,0,1-.1.08.15.15,0,0,1-.13,0l0,0a1.43,1.43,0,0,0,0-.22h0a14,14,0,0,0-27.53-.08l-.06.32a.15.15,0,0,1-.11,0,.17.17,0,0,1-.12-.05.12.12,0,0,1,0-.1A14.32,14.32,0,0,1,82.62,71Zm-1.32-15.9-.2-.11-3.88-.09-.26.19c-2.28.12-2.19-.6-2.19-.6-.24-.6.65-.84.65-.84,1.61-.58,7.48.65,7.48.65C84,55.22,81.29,55.14,81.29,55.14ZM83,50.41,81.72,40.32a89.81,89.81,0,0,1,18.94-1.61l1.87,12.48Zm32.13,6.74L114.9,57,111,57l-.26.19c-2.28.12-2.18-.6-2.18-.6-.24-.6.64-.84.64-.84,1.61-.58,7.49.65,7.49.65C117.8,57.24,115.09,57.15,115.09,57.15Zm-5.94-5.65-3.87-12.44c17.88-1,33.51,13.78,33.51,13.78Zm29.69-1.88a116.71,116.71,0,0,0-15.9-9.74l1.29-.22,19.66,11.46A7.7,7.7,0,0,1,138.84,49.62ZM181.29,71a.15.15,0,0,1-.11.08.15.15,0,0,1-.13,0l0,0c0-.08,0-.15,0-.22h0a14,14,0,0,0-27.52-.08,3,3,0,0,0-.07.32.12.12,0,0,1-.11,0,.16.16,0,0,1-.11-.05.12.12,0,0,1,0-.1,14.32,14.32,0,0,1,28.18.07Zm5.42-5.39-2-.62-6.55-3.92s3.21-1.3,5.45-.55,3.32,1,3.91,1.66l1.23.37.31,2-1.33-.22S187.85,66,186.71,65.65Z"/></svg>