<svg id="Capa_1" data-name="Capa 1" xmlns="http://www.w3.org/2000/svg" viewBox="0 0 206.04 104.33"><defs><style>.cls-1{fill:#fff;}.cls-1,.cls-2,.cls-3{fill-rule:evenodd;}.cls-2{fill:#ec1c24;}.cls-3{fill:#959596;}</style></defs><path class="cls-1" d="M20.13,58.31c.73,0,.89-.47.89-.47.08-6.21,6.21-6.66,7.85-6.66a1.81,1.81,0,0,0,.91-.26c1.33-.82.38-1.66-.18-2A1.2,1.2,0,0,0,29,48.7H19.42c-1,.61-1.08,9.61-1.08,9.61s.8,0,1.79,0ZM87.8,33.66h4c4,0,8.58.09,13.65.25s12.21,1,12.21,1h.1c12.54,2,26.14,13.64,27.73,15a.74.74,0,0,0,.37.17c1.84.26,15.64,2.2,28.74,4.93,14.07,2.94,13.16,16.2,13.77,21.26s-3.24,5.06-3.24,5.06L179,81.7a.69.69,0,0,1-.74-.71v-.33c0-9.28-7-16.79-15.61-16.79s-15.6,7.51-15.6,16.79a18.81,18.81,0,0,0,.11,2,.7.7,0,0,1-.66.77l-2.75.15a.71.71,0,0,1-.74-.7V82.1a.21.21,0,0,0-.21-.21h-1.17a.14.14,0,0,0-.14.14v.85a.7.7,0,0,1-.73.7L84.27,81.71a.71.71,0,0,1-.68-.71V79.73A.71.71,0,0,0,83,79l-3.44-.69H79.5l-2.68-.2a.71.71,0,0,1-.64-.73V77a16.37,16.37,0,0,0-32.62-2.32.7.7,0,0,1-.89.58L24.54,69.89a.66.66,0,0,1-.29-.17,29.77,29.77,0,0,0-6.36-4.84.71.71,0,0,1-.37-.67L18.5,49a.13.13,0,0,1,0-.06c.42-3,4-2.81,4-2.81h49a.7.7,0,0,0,.69-.6A55.23,55.23,0,0,0,72.76,39c.12-4.71,2.83-5.06,2.83-5.06s4.55-.22,12.21-.25ZM39.63,72.53a.16.16,0,0,0,.19-.12A20.2,20.2,0,0,1,59.37,56c11,0,20,9.26,20,20.65,0,.17,0,.35,0,.53a.16.16,0,0,0,.16.16h0a.15.15,0,0,0,.16-.15c0-.18,0-.36,0-.54,0-11.56-9.1-21-20.29-21a19.93,19.93,0,0,0-12.89,4.77,21.11,21.11,0,0,0-7,11.91.15.15,0,0,0,.12.19ZM86.84,55.37c.37-1.15-3.26-1.55-6.3-1.67s-2,1.27-2,1.27l8.3.4ZM85.12,79.93,140,81.6a.22.22,0,0,0,.22-.2v-.52a.21.21,0,0,0-.2-.21L85.15,79a.2.2,0,0,0-.21.2l0,.51a.22.22,0,0,0,.2.22ZM109.36,57.3l8.3.41c.37-1.15-3.26-1.56-6.3-1.67s-2,1.26-2,1.26Zm32-5a.5.5,0,0,0,.11-.8c-2-2-16.1-14.67-33.1-14.59L109,50.33s28.88,3.81,32.41,1.93ZM103.53,36.79H79.83a1.45,1.45,0,0,0-1.45,1.54v3.25s-.59,7.79,25.15,8.07V36.79Zm-32,10a.11.11,0,0,0-.11-.12H21.59a2.16,2.16,0,0,0-1.07.3l-.55.33a.12.12,0,0,0,.06.21H71.41a.11.11,0,0,0,.11-.11v-.61Zm71.7,33.57a.17.17,0,0,0,.16.14h0a.16.16,0,0,0,.14-.17,19.13,19.13,0,0,1-.17-2.51,19.07,19.07,0,1,1,38,2.39.16.16,0,1,0,.32,0,19.57,19.57,0,0,0,.15-2.43,19.39,19.39,0,0,0-38.77,0,19.62,19.62,0,0,0,.17,2.55Zm43.27-14.16s-1.35-5.06-4.05-6.56l-7.52-.84s9.5,9.43,11.57,7.4Zm-35.81-8.3a.42.42,0,0,0-.43-.42h-2.38a.42.42,0,0,0-.42.42v.71a.42.42,0,0,0,.42.42h2.38a.42.42,0,0,0,.43-.42Z"/><path class="cls-1" d="M23.8,70s-3.87-4.12-6.52-4.85c0,0-3.52-.56-3.05,4s4.11,4.46,4.11,4.46h1.49v.47H36.77Z"/><path class="cls-1" d="M59.52,87.91A7.87,7.87,0,1,0,51.65,80a7.87,7.87,0,0,0,7.87,7.87Zm0-21.28A13.41,13.41,0,1,1,46.11,80,13.41,13.41,0,0,1,59.52,66.63Z"/><path class="cls-1" d="M56.87,80a2.66,2.66,0,1,0,2.65-2.66A2.66,2.66,0,0,0,56.87,80Z"/><path class="cls-1" d="M162.65,87.91A7.87,7.87,0,1,0,154.78,80a7.87,7.87,0,0,0,7.87,7.87Zm0-21.28A13.41,13.41,0,1,1,149.24,80,13.41,13.41,0,0,1,162.65,66.63Z"/><path class="cls-1" d="M160,80a2.66,2.66,0,1,0,2.66-2.66A2.66,2.66,0,0,0,160,80Z"/><path class="cls-2" d="M29.6,48.89c.56.37,1.51,1.21.18,2a1.81,1.81,0,0,1-.91.26c-1.64,0-7.77.45-7.85,6.66,0,0-.16.44-.89.47-1,0-1.79,0-1.79,0s.1-9,1.08-9.61H29A1.2,1.2,0,0,1,29.6,48.89Z"/><path class="cls-3" d="M186.49,66.16c-2.07,2-11.57-7.4-11.57-7.4l7.52.84C185.14,61.1,186.49,66.16,186.49,66.16Z"/></svg>