<svg id="Capa_1" data-name="Capa 1" xmlns="http://www.w3.org/2000/svg" viewBox="0 0 206.04 104.33"><defs><style>.cls-1{fill:#000001;}.cls-1,.cls-2,.cls-3{fill-rule:evenodd;}.cls-2{fill:#ec1c24;}.cls-3{fill:#bab9b9;}</style></defs><path class="cls-1" d="M138.72,82.49a8.16,8.16,0,1,1,8.16-8.16,8.16,8.16,0,0,1-8.16,8.16Zm2.41-8.16a2.41,2.41,0,1,0-2.41,2.42,2.41,2.41,0,0,0,2.41-2.42Zm-2.41-13.9a13.91,13.91,0,1,0,13.91,13.9A13.9,13.9,0,0,0,138.72,60.43Z"/><path class="cls-1" d="M54.37,82.49a8.16,8.16,0,1,1,8.16-8.16,8.16,8.16,0,0,1-8.16,8.16Zm2.42-8.16a2.42,2.42,0,1,0-2.42,2.42,2.42,2.42,0,0,0,2.42-2.42Zm-2.42-13.9a13.91,13.91,0,1,0,13.91,13.9A13.9,13.9,0,0,0,54.37,60.43Z"/><path class="cls-1" d="M162.63,63.24l-.28-4.81A7.55,7.55,0,0,0,159.68,54a8.63,8.63,0,0,0-5.23-2.17c-4.2-.57-8.85-1.18-13-1.79-2.23-.33-4.43-.65-6.52-.88-1.23-.14-1.88-.24-3.14-.42-3.55-.52-3.77-.58-5.6.12a72.59,72.59,0,0,0-16.72-14.53c-3.21-2.79-5.65-2.19-10.42-2.19,0-3.4-2.23-5.48-4.38-5.48h-37A5.11,5.11,0,0,0,53.28,31v1.09c-4.09,0-5.57.18-8.57,3.22a83.4,83.4,0,0,0-6,6.29l-6.15,6.18c-2.3,2.3-2.27,1.66-2.27,4.17l3.85,2,.45,3.67-.3,1.85-4,1.32,0,4c0,9.49-1.13,7.65,4,8.68a39.11,39.11,0,0,1,4.72,1,15.38,15.38,0,0,1,22.3-13.52,15.63,15.63,0,0,1,8.4,13.8h53.44a16.94,16.94,0,0,1,1.44-6.24c5.4-12,22.83-12,27.81,0a19,19,0,0,1,1.45,6.24c5.24,0,4.12.51,6.65-2.12C163.23,69.93,162.63,68.28,162.63,63.24ZM59,28.83H93.29c2.31,0,3.38,1.15,3.56,3.29-1.95,0-40.51.38-41.13-.24C55.3,31.46,55.74,28.83,59,28.83Zm-6.16,9.78c.28-.48.42-.76.7-1.22s.23-.88,1-.88H64V49.66h-14L48.3,46.37ZM70.2,71.55a.19.19,0,0,1-.13,0,.17.17,0,0,1-.12,0c0-.06-.06-.3-.07-.36a15.82,15.82,0,0,0-31,.1h0a2.21,2.21,0,0,0-.05.25l0,0a.16.16,0,0,1-.15,0,.22.22,0,0,1-.12-.09h0a16.14,16.14,0,0,1,31.77-.09A.17.17,0,0,1,70.2,71.55Zm4.24-16.24-6.34,0s-.84-1,1.48-1S74.68,54.42,74.44,55.31Zm13.64-5.65H66.16V36.51H88.08Zm11.31,5.65-6.35,0s-.84-1,1.49-1S99.63,54.42,99.39,55.31Zm-9.12-5.65V36.51h20.21A67.29,67.29,0,0,1,123.19,47.8c-1.83.66-4.23,1.86-5.78,1.86Zm64,21.89a.19.19,0,0,1-.13,0,.21.21,0,0,1-.13,0l-.06-.36a15.82,15.82,0,0,0-31,.1h0a2.21,2.21,0,0,0,0,.25l-.06,0a.14.14,0,0,1-.14,0,.19.19,0,0,1-.12-.09h0a16.14,16.14,0,0,1,31.77-.09A.21.21,0,0,1,154.29,71.55Z"/><path class="cls-2" d="M35.73,60.84s-.53-6.21-1.29-7.56S30.68,52,30.68,52a30.2,30.2,0,0,0-.45,8.86Z"/><path class="cls-3" d="M156.73,62.9s-1.81.08-1.89-1.59-.54-3.8,1.68-3.66,5.83.65,5.83.65.28,3.33.28,4.94Z"/></svg>